<svg aria-hidden="true" style="position: absolute; width: 0; height: 0; overflow: hidden;" version="1.1" xmlns="http://www.w3.org/2000/svg" xmlns:xlink="http://www.w3.org/1999/xlink">
    <defs>
        <symbol id="icon-menu" viewBox="0 0 32 32">
            <path fill="none" stroke="#53102b" style="stroke: var(--color1, #53102b)" stroke-linejoin="miter" stroke-linecap="round" stroke-miterlimit="4" stroke-width="1.8286" d="M6.667 9.333h18.667"></path>
            <path fill="none" stroke="#53102b" style="stroke: var(--color1, #53102b)" stroke-linejoin="miter" stroke-linecap="round" stroke-miterlimit="4" stroke-width="1.8286" d="M6.667 16h18.667"></path>
            <path fill="none" stroke="#53102b" style="stroke: var(--color1, #53102b)" stroke-linejoin="miter" stroke-linecap="round" stroke-miterlimit="4" stroke-width="1.8286" d="M6.667 22.667h18.667"></path>
        </symbol>
        <symbol id="icon-closeBtn" viewBox="0 0 32 32">
            <path stroke-linejoin="round" stroke-linecap="round" stroke-miterlimit="4" stroke-width="2.6667" d="M24 8l-16 16"></path>
            <path stroke-linejoin="round" stroke-linecap="round" stroke-miterlimit="4" stroke-width="2.6667" d="M8 8l16 16"></path>
        </symbol>
        <symbol id="icon-github" viewBox="0 0 32 32">
            <path d="M16.013 0c-8.855 0-16.013 7.211-16.013 16.132 0 7.131 4.587 13.167 10.949 15.304 0.796 0.161 1.087-0.347 1.087-0.774 0-0.374-0.026-1.656-0.026-2.992-4.454 0.962-5.382-1.923-5.382-1.923-0.716-1.87-1.777-2.35-1.777-2.35-1.458-0.988 0.106-0.988 0.106-0.988 1.617 0.107 2.466 1.656 2.466 1.656 1.431 2.457 3.738 1.763 4.666 1.335 0.132-1.042 0.557-1.763 1.008-2.163-3.553-0.374-7.291-1.763-7.291-7.959 0-1.763 0.636-3.205 1.644-4.327-0.159-0.401-0.716-2.057 0.159-4.274 0 0 1.352-0.427 4.401 1.656 1.305-0.353 2.651-0.533 4.004-0.534 1.352 0 2.73 0.187 4.003 0.534 3.049-2.083 4.401-1.656 4.401-1.656 0.875 2.217 0.318 3.873 0.159 4.274 1.034 1.122 1.644 2.564 1.644 4.327 0 6.197-3.738 7.559-7.317 7.959 0.583 0.507 1.087 1.469 1.087 2.991 0 2.163-0.026 3.9-0.026 4.434 0 0.427 0.292 0.935 1.087 0.775 6.363-2.137 10.949-8.173 10.949-15.304 0.026-8.921-7.158-16.132-15.987-16.132z"></path>
        </symbol>
        <symbol id="icon-linkedin" viewBox="0 0 32 32">
            <path  d="M29.638 0h-27.276c-0.627 0-1.227 0.249-1.67 0.692s-0.692 1.044-0.692 1.67v27.276c0 0.626 0.249 1.227 0.692 1.67s1.044 0.692 1.67 0.692h27.276c0.626 0 1.227-0.249 1.67-0.692s0.692-1.044 0.692-1.67v-27.276c0-0.627-0.249-1.227-0.692-1.67s-1.044-0.692-1.67-0.692zM9.538 27.26h-4.811v-15.282h4.811v15.282zM7.129 9.86c-0.546-0.003-1.078-0.168-1.531-0.473s-0.804-0.738-1.010-1.243c-0.207-0.505-0.259-1.060-0.15-1.595s0.373-1.026 0.76-1.41c0.387-0.385 0.88-0.646 1.415-0.751s1.090-0.049 1.594 0.161c0.504 0.21 0.934 0.564 1.237 1.018s0.464 0.988 0.463 1.534c0.005 0.365-0.063 0.728-0.201 1.066s-0.343 0.645-0.602 0.903c-0.259 0.258-0.568 0.46-0.907 0.596s-0.702 0.202-1.068 0.194zM27.271 27.273h-4.809v-8.349c0-2.462-1.047-3.222-2.398-3.222-1.427 0-2.827 1.076-2.827 3.284v8.287h-4.811v-15.284h4.627v2.118h0.062c0.464-0.94 2.091-2.547 4.573-2.547 2.684 0 5.584 1.593 5.584 6.26l-0.002 9.453z"></path>
        </symbol>
        <symbol id="icon-mail" viewBox="0 0 32 32">
            <path d="M16 0c-8.837 0-16 7.163-16 16s7.163 16 16 16 16-7.163 16-16-7.163-16-16-16zM8 8h16c0.286 0 0.563 0.061 0.817 0.177l-8.817 10.286-8.817-10.287c0.254-0.116 0.531-0.177 0.817-0.177zM6 22v-12c0-0.042 0.002-0.084 0.004-0.125l5.864 6.842-5.8 5.8c-0.045-0.167-0.069-0.34-0.069-0.517zM24 24h-16c-0.177 0-0.35-0.024-0.517-0.069l5.691-5.691 2.826 3.297 2.826-3.297 5.691 5.691c-0.167 0.045-0.34 0.069-0.517 0.069zM26 22c0 0.177-0.024 0.35-0.069 0.517l-5.8-5.8 5.865-6.842c0.003 0.041 0.004 0.083 0.004 0.125v12z"></path>
        </symbol>
        <symbol id="icon-phone" viewBox="0 0 32 32">
            <path d="M22 20c-2 2-2 4-4 4s-4-2-6-4-4-4-4-6 2-2 4-4-4-8-6-8-6 6-6 6c0 4 4.109 12.109 8 16s12 8 16 8c0 0 6-4 6-6s-6-8-8-6z"></path>
        </symbol>
        <symbol id="icon-html" viewBox="0 0 32 32">
            <path fill="#e44d26" style="fill: var(--color1, #e44d26)" d="M4.443 28.801l-2.568-28.801h28.216l-2.57 28.797-11.555 3.203-11.523-3.199z"></path>
            <path fill="#f16529" style="fill: var(--color2, #f16529)" d="M15.983 29.552l9.337-2.588 2.197-24.608h-11.533v27.197z"></path>
            <path fill="#ebebeb" style="fill: var(--color3, #ebebeb)" d="M11.309 13.037h4.674v3.532h-7.905l-0.953-10.682h8.857v3.532h-4.997l0.323 3.617z"></path>
            <path fill="#ebebeb" style="fill: var(--color3, #ebebeb)" d="M15.967 22.215l0.015-0.004v3.675l-0.016 0.005-7.236-2.009-0.495-5.546h3.546l0.252 2.817 3.934 1.062z"></path>
            <path fill="#fff" style="fill: var(--color4, #fff)" d="M15.971 5.887h8.849l-0.316 3.532h-8.532v-3.532z"></path>
            <path fill="#fff" style="fill: var(--color4, #fff)" d="M15.971 16.569v-3.532h8.211l-0.086 0.948-0.883 9.896-7.242 2.007v-3.675l3.94-1.063 0.41-4.581h-4.35z"></path>
        </symbol>
        <symbol id="icon-css" viewBox="0 0 32 32">
            <path fill="#0071bc" style="fill: var(--color14, #0071bc)" d="M4.443 28.801l-2.568-28.801h28.217l-2.571 28.796-11.555 3.204-11.524-3.199z"></path>
            <path fill="#29abe2" style="fill: var(--color15, #29abe2)" d="M16.007 29.55l9.325-2.565 2.185-24.586h-11.51v27.151z"></path>
            <path fill="#b3b3b3" style="fill: var(--color16, #b3b3b3)" d="M7.753 12.98l0.309 3.527 7.945-3.527v-3.533l-8.254 3.533z"></path>
            <path fill="#e6e6e6" style="fill: var(--color17, #e6e6e6)" d="M24.807 5.676l-8.799 3.771v3.533l8.496-3.777 0.303-3.527z"></path>
            <path fill="#e6e6e6" style="fill: var(--color17, #e6e6e6)" d="M16.007 22.209l-0.027 0.004-3.94-1.058-0.257-2.813h-3.546l0.495 5.543 7.248 2.007 0.028-0.007v-3.675z"></path>
            <path fill="#fff" style="fill: var(--color2, #fff)" d="M16.007 12.98v3.527h4.314l-0.392 4.611-3.922 1.093v3.675l7.224-2.007 0.951-10.9h-8.175z"></path>
            <path fill="#e6e6e6" style="fill: var(--color17, #e6e6e6)" d="M16.007 12.98h-8.254l0.309 3.527h7.945v-3.527z"></path>
            <path fill="#e6e6e6" style="fill: var(--color17, #e6e6e6)" d="M16.007 9.203v-3.527h-8.882l0.313 3.527h8.569z"></path>
            <path fill="#fff" style="fill: var(--color2, #fff)" d="M16.007 5.676v3.527h8.496l0.303-3.527h-8.799z"></path>
        </symbol>
        <symbol id="icon-sass" viewBox="0 0 32 32">
            <path fill="#8cc84b" style="fill: var(--color13, #8cc84b)" d="M9.834 19.581c-0.581 0.318-1.457 0.833-2.134 1.394-1.112 0.919-1.345 2.194-0.758 2.492 0.543 0.275 1.81-0.052 2.717-0.918 0.952-0.909 1.344-2.061 0.939-3.368-0.048 0.025-0.094 0.050-0.14 0.073l0.001 0.002-0.061 0.031c-0.237 0.124-0.43 0.226-0.562 0.295zM26.168 19.169c-0.329 0.626-0.346 0.828-0.246 0.89 0.478-0.15 1.268-0.512 1.274-1.482 0.001-0.145-0.036-0.301-0.094-0.464-0.511 0.396-0.805 0.81-0.934 1.056zM31.294 17.276c-1.276-0.13-2.272 0.026-3.045 0.308 0.143 0.326 0.253 0.665 0.269 1.007 0.036 0.751-0.555 1.306-1.17 1.703-0.359 0.231-0.742 0.385-1.063 0.478-0.257 0.095-0.598 0.193-0.84 0.149-0.534-0.095-0.818-0.51-0.455-1.425 0.196-0.495 0.762-1.249 1.675-1.898-0.208-0.375-0.44-0.757-0.558-1.108-0.233-0.692-0.303-1.11-0.303-1.11s-0.753 1.366-1.724 2.607c-0.056 0.072-0.112 0.143-0.168 0.213 0.191 0.388 0.341 0.798 0.361 1.212 0.036 0.751-0.336 1.318-0.952 1.714-0.334 0.215-0.69 0.364-0.995 0.459-0.195 0.075-0.592 0.197-1.157 0.23-0.309 0.018-0.606 0.002-0.772-0.108-0.228-0.151-0.256-0.337-0.138-0.592 0.1-0.216 0.848-0.963 1.475-1.618 0.173-0.181 0.338-0.365 0.486-0.536l-0.004-0.007c0 0 0.114-0.128 0.298-0.352-0.229-0.432-0.52-0.882-0.657-1.289-0.233-0.692-0.303-1.11-0.303-1.11s-0.763 1.712-1.558 3.078c-0.615 1.058-1.026 1.699-1.211 1.98l-0.002 0.011c0 0-0.028 0.041-0.075 0.105l-0.036 0.052-0.001-0.005c-0.206 0.267-0.669 0.789-1.13 0.789-1.264 0-0.8-2.245-0.8-2.245s-0.369 0.832-0.786 1.545c-0.339 0.582-0.648 1.075-1.324 1.075-0.194 0-0.502-0.005-0.758-0.218-0.58-0.483-1.024-1.708-0.937-2.656 0.074-0.807 0.216-1.366 0.411-1.832-0.347 0.165-0.747 0.361-1.155 0.571l-0.627 0.323 0.020 0.032c0.519 0.878 0.657 2.802-0.474 4.28s-3.237 2.377-5.29 1.878c-0.662-0.161-1.662-1.36-0.8-3.031 0.761-1.473 3.802-2.866 4.604-3.214l0.22-0.106c-1.598-1.223-5.588-2.874-6.148-5.409-0.158-0.714 0.225-2.42 2.62-4.382 2.014-1.65 4.816-2.913 7.405-3.719 4.349-1.353 8.944-0.555 9.65 1.871 0.695 2.386-1.671 5.24-4.7 6.266-2.705 0.916-4.941 0.771-5.86 0.507-1.044-0.3-1.657-0.903-1.806-1.244-0.059-0.133-0.16-0.357 0-0.434 0.098-0.047 0.137-0.036 0.4 0.218 0.249 0.241 1.252 0.887 3.158 0.7 5-0.49 8.012-3.892 7.060-5.722-0.666-1.281-4.52-1.859-9.335 0.242-5.877 2.564-6.196 4.678-6.247 5.481-0.138 2.208 3.113 3.37 4.872 5.012l0.068 0.065c0.329-0.159 0.677-0.327 1.018-0.49 0.887-0.426 1.723-0.826 2.113-1.012 0.619-0.787 1.875-1.656 2.782-1.656 1.45 0 0.952 1.823 0.952 1.823s0.029-0.083 0.069-0.084c0.041-0.001 0.201-0.24 0.648-0.097 0.46 0.148 0.356 0.43 0.359 0.459 0.006 0.056-0.544 1.677-0.772 2.717-0.109 0.496-0.046 0.857-0.014 0.857 0.045 0 0.137-0.126 0.222-0.262l-0.002-0.004c0 0 0.064-0.103 0.172-0.287l0.021-0.039 0.001 0.002c0.127-0.217 0.304-0.535 0.51-0.93 0.402-0.776 1.938-3.773 2.069-4.105s0.198-0.674 0.262-0.821c0.063-0.147 0.606-0.258 1.241-0.254s0.699 0.241 0.703 0.29c0.005 0.049-0.302 0.707-0.372 1.171s-0.003 0.697 0.055 1.087c0.038 0.255 0.22 0.579 0.436 0.946 0.657-0.939 1.812-2.736 1.923-3.239 0.076-0.344 0.198-0.674 0.262-0.821s0.606-0.258 1.24-0.254c0.634 0.004 0.699 0.241 0.703 0.29s-0.303 0.706-0.372 1.171c-0.070 0.464-0.003 0.697 0.055 1.087 0.050 0.334 0.345 0.783 0.637 1.293 0.798-0.344 1.738-0.576 2.839-0.58 0.456-0.002 0.985 0.038 1.258 0.112v-7.68c0-0.542-0.317-1.041-0.854-1.312l-14.318-7.241c-0.535-0.271-1.191-0.271-1.727 0l-14.279 7.238c-0.535 0.271-0.822 0.771-0.822 1.312v14.489c0 0.541 0.288 1.041 0.823 1.312l14.302 7.244c0.535 0.271 1.185 0.271 1.72 0l14.308-7.244c0.535-0.271 0.847-0.771 0.847-1.312v-5.855c-0.182-0.047-0.448-0.084-0.706-0.11zM15.89 16.517c-0.307 0.301-0.831 1.077-1.075 1.727-0.487 1.29-0.276 2.601 0.069 2.68 0.402 0.092 1.063-1.632 1.379-2.306 0.198-0.422 0.968-2.297 0.8-2.547-0.132-0.196-0.677-0.038-1.172 0.447zM21.46 20.865c0 0-0.097 0.080-0.055 0.103 0.057 0.030 0.18-0.009 0.314-0.070 0.379-0.209 1.229-0.729 1.231-1.499 0-0.022-0.001-0.044-0.003-0.067-0.197 0.226-0.379 0.428-0.535 0.599-0.268 0.291-0.951 0.934-0.951 0.934z"></path>
        </symbol>
        <symbol id="icon-js" viewBox="0 0 32 32">
            <path fill="#f7df1e" style="fill: var(--color1, #f7df1e)" d="M0 0h32v32h-32v-32z"></path>
            <path fill="#000" style="fill: var(--color2, #000)" d="M8.414 26.742l2.449-1.482c0.472 0.838 0.902 1.546 1.933 1.546 0.988 0 1.611-0.387 1.611-1.89v-10.225h3.007v10.267c0 3.115-1.826 4.532-4.489 4.532-2.406 0-3.802-1.246-4.511-2.749z"></path>
            <path fill="#000" style="fill: var(--color2, #000)" d="M19.047 26.419l2.449-1.418c0.645 1.053 1.482 1.826 2.964 1.826 1.246 0 2.041-0.623 2.041-1.482 0-1.031-0.816-1.396-2.191-1.998l-0.752-0.322c-2.17-0.924-3.609-2.083-3.609-4.532 0-2.255 1.718-3.974 4.404-3.974 1.912 0 3.287 0.666 4.274 2.406l-2.341 1.504c-0.516-0.924-1.074-1.289-1.933-1.289-0.881 0-1.439 0.558-1.439 1.289 0 0.902 0.558 1.267 1.847 1.826l0.752 0.322c2.556 1.096 3.995 2.212 3.995 4.726 0 2.707-2.127 4.189-4.983 4.189-2.792 0-4.597-1.332-5.477-3.072z"></path>
        </symbol>
        <symbol id="icon-ts" viewBox="0 0 32 32">
            <path fill="#3178c6" style="fill: var(--color11, #3178c6)" d="M2.5 0h27c1.381 0 2.5 1.119 2.5 2.5v27c0 1.381-1.119 2.5-2.5 2.5h-27c-1.381 0-2.5-1.119-2.5-2.5v-27c0-1.381 1.119-2.5 2.5-2.5z"></path>
            <path fill="#fff" style="fill: var(--color2, #fff)" d="M18.815 25.059v3.452c0.562 0.288 1.226 0.504 1.992 0.647s1.575 0.216 2.424 0.216c0.828 0 1.614-0.079 2.359-0.237s1.398-0.419 1.96-0.782c0.561-0.363 1.006-0.838 1.334-1.424s0.491-1.311 0.491-2.174c0-0.626-0.094-1.174-0.281-1.645s-0.457-0.89-0.81-1.257c-0.353-0.367-0.776-0.696-1.269-0.987s-1.049-0.566-1.668-0.825c-0.454-0.187-0.86-0.369-1.22-0.545s-0.666-0.356-0.918-0.54c-0.252-0.183-0.446-0.378-0.583-0.583s-0.205-0.437-0.205-0.696c0-0.237 0.061-0.451 0.183-0.642s0.295-0.354 0.518-0.491c0.223-0.137 0.497-0.243 0.821-0.318s0.684-0.113 1.080-0.113c0.288 0 0.592 0.022 0.912 0.065s0.643 0.11 0.967 0.2c0.324 0.090 0.639 0.203 0.945 0.34s0.588 0.295 0.848 0.475v-3.226c-0.525-0.201-1.1-0.351-1.722-0.448s-1.337-0.146-2.143-0.146c-0.821 0-1.598 0.088-2.332 0.264s-1.38 0.451-1.938 0.825c-0.558 0.374-0.999 0.851-1.323 1.43s-0.486 1.271-0.486 2.077c0 1.028 0.297 1.906 0.891 2.632s1.495 1.341 2.705 1.845c0.475 0.194 0.918 0.385 1.328 0.572s0.765 0.381 1.064 0.582c0.299 0.201 0.534 0.421 0.707 0.658s0.259 0.507 0.259 0.809c0 0.223-0.054 0.43-0.162 0.62s-0.272 0.356-0.491 0.496c-0.219 0.14-0.493 0.25-0.821 0.329s-0.711 0.119-1.15 0.119c-0.749 0-1.49-0.131-2.224-0.394s-1.415-0.656-2.041-1.181zM13.060 16.468h4.44v-2.843h-12.375v2.843h4.418v12.657h3.517v-12.657z"></path>
        </symbol>
        <symbol id="icon-react" viewBox="0 0 33 32">
            <path fill="#00d8ff" style="fill: var(--color10, #00d8ff)" d="M27.187 10.978c-0.343-0.114-0.698-0.222-1.064-0.325 0.060-0.238 0.115-0.472 0.164-0.703 0.806-3.785 0.279-6.834-1.52-7.838-1.725-0.963-4.546 0.041-7.395 2.441-0.274 0.231-0.549 0.475-0.823 0.731-0.183-0.169-0.366-0.333-0.548-0.49-2.986-2.566-5.979-3.647-7.776-2.64-1.723 0.965-2.234 3.832-1.508 7.419 0.070 0.347 0.152 0.7 0.245 1.060-0.424 0.116-0.833 0.24-1.224 0.372-3.501 1.181-5.737 3.032-5.737 4.953 0 1.983 2.4 3.972 6.046 5.178 0.288 0.095 0.586 0.185 0.894 0.271-0.1 0.389-0.187 0.77-0.26 1.142-0.692 3.525-0.151 6.324 1.567 7.283 1.775 0.991 4.755-0.028 7.656-2.482 0.229-0.194 0.459-0.4 0.69-0.615 0.299 0.278 0.597 0.542 0.894 0.789 2.81 2.34 5.586 3.285 7.303 2.323 1.774-0.994 2.35-4 1.602-7.659-0.057-0.279-0.124-0.565-0.198-0.855 0.209-0.060 0.415-0.122 0.615-0.186 3.791-1.215 6.257-3.18 6.257-5.19 0-1.927-2.308-3.791-5.879-4.981zM26.365 19.851c-0.181 0.058-0.366 0.114-0.555 0.168-0.419-1.282-0.983-2.645-1.674-4.054 0.66-1.375 1.203-2.721 1.609-3.995 0.338 0.095 0.667 0.195 0.983 0.3 3.060 1.019 4.926 2.527 4.926 3.688 0 1.237-2.016 2.843-5.289 3.892zM25.007 22.455c0.331 1.618 0.378 3.080 0.159 4.223-0.197 1.027-0.593 1.712-1.083 1.987-1.042 0.584-3.271-0.175-5.674-2.176-0.276-0.229-0.553-0.474-0.831-0.734 0.932-0.986 1.863-2.133 2.772-3.406 1.599-0.137 3.109-0.362 4.478-0.668 0.067 0.263 0.127 0.522 0.179 0.774zM11.273 28.564c-1.018 0.348-1.829 0.358-2.319 0.084-1.043-0.582-1.477-2.829-0.885-5.844 0.068-0.345 0.148-0.7 0.241-1.062 1.355 0.29 2.854 0.498 4.456 0.624 0.915 1.246 1.873 2.391 2.839 3.394-0.211 0.197-0.421 0.385-0.63 0.561-1.283 1.085-2.569 1.855-3.702 2.242zM6.503 19.843c-1.612-0.533-2.944-1.226-3.857-1.983-0.82-0.68-1.234-1.355-1.234-1.902 0-1.165 1.795-2.651 4.789-3.662 0.363-0.123 0.744-0.238 1.138-0.347 0.414 1.303 0.957 2.664 1.612 4.042-0.664 1.398-1.214 2.781-1.632 4.099-0.281-0.078-0.554-0.161-0.816-0.247zM8.102 9.311c-0.621-3.073-0.209-5.392 0.83-5.974 1.106-0.62 3.552 0.264 6.131 2.479 0.165 0.142 0.33 0.29 0.496 0.443-0.961 0.998-1.91 2.135-2.817 3.373-1.555 0.14-3.044 0.364-4.412 0.664-0.086-0.335-0.162-0.664-0.227-0.986zM22.366 12.719c-0.327-0.547-0.663-1.081-1.006-1.6 1.055 0.129 2.066 0.3 3.015 0.51-0.285 0.884-0.64 1.808-1.058 2.755-0.3-0.551-0.617-1.107-0.951-1.665zM16.549 7.237c0.652 0.683 1.304 1.446 1.946 2.273-0.647-0.030-1.301-0.045-1.962-0.045-0.654 0-1.304 0.015-1.947 0.044 0.642-0.82 1.301-1.581 1.962-2.272zM10.695 12.729c-0.327 0.548-0.638 1.101-0.933 1.655-0.411-0.944-0.763-1.872-1.051-2.769 0.943-0.204 1.95-0.371 2.998-0.498-0.347 0.524-0.686 1.062-1.014 1.612v0zM11.739 20.898c-1.083-0.117-2.104-0.275-3.048-0.474 0.292-0.912 0.652-1.861 1.072-2.825 0.296 0.553 0.609 1.106 0.937 1.656h0c0.335 0.56 0.682 1.108 1.038 1.643zM16.588 24.777c-0.67-0.699-1.337-1.472-1.99-2.304 0.633 0.024 1.279 0.036 1.935 0.036 0.674 0 1.34-0.015 1.996-0.043-0.644 0.847-1.294 1.621-1.941 2.311zM23.33 17.55c0.442 0.975 0.815 1.918 1.11 2.815-0.959 0.212-1.994 0.382-3.084 0.509 0.343-0.526 0.682-1.070 1.015-1.628 0.337-0.565 0.657-1.131 0.959-1.696zM21.148 18.562c-0.517 0.867-1.048 1.695-1.586 2.477-0.981 0.068-1.995 0.103-3.028 0.103-1.029 0-2.030-0.031-2.994-0.091-0.56-0.792-1.103-1.622-1.616-2.481h0c-0.512-0.856-0.984-1.72-1.411-2.578 0.427-0.861 0.897-1.725 1.407-2.58l-0 0c0.511-0.857 1.048-1.683 1.603-2.47 0.983-0.072 1.992-0.109 3.011-0.109h0c1.024 0 2.033 0.038 3.017 0.11 0.547 0.781 1.081 1.605 1.593 2.462 0.518 0.867 0.995 1.725 1.425 2.568-0.429 0.857-0.905 1.724-1.421 2.59zM24.062 3.297c1.107 0.618 1.538 3.11 0.842 6.378-0.044 0.209-0.094 0.421-0.149 0.636-1.372-0.306-2.862-0.534-4.421-0.676-0.909-1.252-1.85-2.39-2.795-3.376 0.254-0.237 0.508-0.462 0.76-0.675 2.441-2.056 4.723-2.868 5.762-2.288zM16.533 13.101c1.631 0 2.953 1.279 2.953 2.857s-1.322 2.858-2.953 2.858-2.953-1.279-2.953-2.857c0-1.578 1.322-2.857 2.953-2.857z"></path>
        </symbol>
        <symbol id="icon-nextjs" viewBox="0 0 32 32">
            <path fill="#fff" style="fill: var(--color2, #fff)" d="M14.952 0.009c-0.069 0.006-0.288 0.028-0.485 0.044-4.545 0.41-8.802 2.862-11.499 6.63-1.501 2.096-2.462 4.472-2.825 6.99-0.128 0.879-0.144 1.138-0.144 2.33s0.016 1.451 0.144 2.33c0.87 6.008 5.146 11.056 10.945 12.926 1.038 0.335 2.133 0.563 3.378 0.701 0.485 0.053 2.581 0.053 3.066 0 2.149-0.238 3.97-0.769 5.765-1.686 0.275-0.141 0.328-0.178 0.291-0.21-0.025-0.019-1.198-1.592-2.606-3.494l-2.559-3.456-3.206-4.745c-1.764-2.608-3.216-4.741-3.228-4.741-0.012-0.003-0.025 2.105-0.031 4.679-0.009 4.507-0.013 4.688-0.069 4.795-0.081 0.153-0.144 0.216-0.275 0.285-0.1 0.050-0.188 0.059-0.66 0.059h-0.541l-0.144-0.091c-0.094-0.059-0.163-0.138-0.21-0.228l-0.066-0.141 0.006-6.271 0.009-6.274 0.097-0.122c0.050-0.066 0.156-0.15 0.232-0.191 0.128-0.063 0.178-0.069 0.719-0.069 0.638 0 0.744 0.025 0.91 0.206 0.047 0.050 1.783 2.665 3.86 5.814s4.917 7.45 6.312 9.561l2.534 3.838 0.128-0.084c1.135-0.738 2.337-1.789 3.288-2.884 2.024-2.324 3.328-5.157 3.766-8.179 0.128-0.879 0.144-1.138 0.144-2.33s-0.016-1.451-0.144-2.33c-0.87-6.008-5.146-11.056-10.945-12.926-1.023-0.332-2.111-0.56-3.331-0.697-0.3-0.031-2.368-0.066-2.628-0.041zM21.502 9.685c0.15 0.075 0.272 0.219 0.316 0.369 0.025 0.081 0.031 1.82 0.025 5.739l-0.009 5.623-0.992-1.52-0.995-1.52v-4.088c0-2.643 0.012-4.128 0.031-4.2 0.050-0.175 0.16-0.313 0.31-0.394 0.128-0.066 0.175-0.072 0.666-0.072 0.463 0 0.544 0.006 0.648 0.063z"></path>
        </symbol>
        <symbol id="icon-nodejs" viewBox="0 0 32 32">
            <path fill="#539e43" style="fill: var(--color9, #539e43)" d="M16.028 31.567c-0.43 0-0.831-0.115-1.204-0.315l-3.811-2.264c-0.573-0.315-0.287-0.43-0.115-0.487 0.774-0.258 0.917-0.315 1.719-0.774 0.086-0.057 0.201-0.029 0.287 0.029l2.923 1.748c0.115 0.057 0.258 0.057 0.344 0l11.434-6.62c0.115-0.057 0.172-0.172 0.172-0.315v-13.21c0-0.143-0.057-0.258-0.172-0.315l-11.434-6.591c-0.115-0.057-0.258-0.057-0.344 0l-11.434 6.591c-0.115 0.057-0.172 0.201-0.172 0.315v13.21c0 0.115 0.057 0.258 0.172 0.315l3.123 1.805c1.691 0.86 2.751-0.143 2.751-1.146v-13.038c0-0.172 0.143-0.344 0.344-0.344h1.461c0.172 0 0.344 0.143 0.344 0.344v13.038c0 2.264-1.232 3.582-3.381 3.582-0.659 0-1.175 0-2.636-0.716l-3.009-1.719c-0.745-0.43-1.204-1.232-1.204-2.092v-13.21c0-0.86 0.458-1.662 1.204-2.092l11.434-6.62c0.716-0.401 1.691-0.401 2.407 0l11.434 6.62c0.745 0.43 1.204 1.232 1.204 2.092v13.21c0 0.86-0.459 1.662-1.204 2.092l-11.434 6.62c-0.373 0.172-0.802 0.258-1.204 0.258zM19.553 22.483c-5.015 0-6.046-2.292-6.046-4.241 0-0.172 0.143-0.344 0.344-0.344h1.49c0.172 0 0.315 0.115 0.315 0.287 0.229 1.519 0.888 2.264 3.926 2.264 2.407 0 3.439-0.544 3.439-1.834 0-0.745-0.287-1.29-4.040-1.662-3.124-0.315-5.072-1.003-5.072-3.496 0-2.321 1.949-3.697 5.215-3.697 3.668 0 5.473 1.261 5.703 4.012 0 0.086-0.029 0.172-0.086 0.258-0.057 0.057-0.143 0.115-0.229 0.115h-1.49c-0.143 0-0.287-0.115-0.315-0.258-0.344-1.576-1.232-2.092-3.582-2.092-2.636 0-2.952 0.917-2.952 1.605 0 0.831 0.373 1.089 3.926 1.547 3.525 0.459 5.187 1.118 5.187 3.582-0.029 2.522-2.092 3.955-5.731 3.955z"></path>
        </symbol>
        <symbol id="icon-mongodb" viewBox="0 0 32 32">
            <path fill="#13aa52" style="fill: var(--color1, #13aa52)" d="M32 16c0 8.837-7.163 16-16 16s-16-7.163-16-16c0-8.837 7.163-16 16-16s16 7.163 16 16z"></path>
            <path fill="#fff" style="fill: var(--color2, #fff)" d="M20.277 14.045c-1.011-4.46-3.399-5.927-3.656-6.487-0.281-0.395-0.566-1.098-0.566-1.098-0.005-0.012-0.012-0.033-0.021-0.053-0.029 0.395-0.044 0.548-0.418 0.947-0.579 0.452-3.548 2.944-3.79 8.012-0.225 4.726 3.414 7.543 3.906 7.902l0.056 0.040v-0.003c0.003 0.024 0.156 1.125 0.264 2.292h0.386c0.106-0.953 0.248-1.788 0.436-2.607l-0.029 0.152 0.031-0.020c0.234-0.168 0.439-0.337 0.632-0.518l-0.004 0.004 0.023-0.020c1.046-0.967 2.927-3.202 2.909-6.767-0.004-0.63-0.061-1.243-0.167-1.839l0.010 0.066zM16.011 20.598s0-6.629 0.219-6.628c0.171 0 0.392 8.55 0.392 8.55-0.304-0.037-0.61-1.407-0.61-1.923z"></path>
        </symbol>
        <symbol id="icon-postman" viewBox="0 0 32 32">
            <path fill="#ff6c37" style="fill: var(--color8, #ff6c37)" d="M31.869 18.032c1.12-8.766-5.071-16.781-13.822-17.901s-16.797 5.071-17.917 13.822 5.071 16.781 13.822 17.917c8.766 1.12 16.781-5.071 17.917-13.838z"></path>
            <path fill="#fff" style="fill: var(--color2, #fff)" d="M21.775 10.273l-6.751 6.751-1.904-1.904c6.639-6.639 7.295-6.063 8.654-4.847z"></path>
            <path fill="#ff6c37" style="fill: var(--color8, #ff6c37)" d="M15.024 17.184c-0.048 0-0.080-0.016-0.112-0.048l-1.92-1.904c-0.064-0.064-0.064-0.16 0-0.224 6.751-6.751 7.455-6.111 8.878-4.831 0.032 0.032 0.048 0.064 0.048 0.112s-0.016 0.080-0.048 0.112l-6.751 6.735c-0.016 0.032-0.064 0.048-0.096 0.048zM13.345 15.12l1.68 1.68 6.511-6.511c-1.184-1.056-1.984-1.376-8.191 4.831z"></path>
            <path fill="#fff" style="fill: var(--color2, #fff)" d="M16.96 18.959l-1.84-1.84 6.751-6.751c1.808 1.824-0.896 4.783-4.911 8.59z"></path>
            <path fill="#ff6c37" style="fill: var(--color8, #ff6c37)" d="M16.96 19.119c-0.048 0-0.080-0.016-0.112-0.048l-1.84-1.84c-0.032-0.032-0.032-0.064-0.032-0.112s0.016-0.080 0.048-0.112l6.751-6.751c0.064-0.064 0.16-0.064 0.224 0 0.416 0.384 0.64 0.928 0.624 1.488-0.032 1.776-2.048 4.031-5.535 7.327-0.048 0.032-0.096 0.048-0.128 0.048zM15.344 17.12c1.024 1.040 1.456 1.456 1.616 1.616 2.688-2.56 5.295-5.183 5.311-6.991 0.016-0.416-0.144-0.832-0.416-1.152l-6.511 6.527z"></path>
            <path fill="#fff" style="fill: var(--color2, #fff)" d="M13.152 15.168l1.36 1.36c0.032 0.032 0.032 0.064 0 0.096-0.016 0.016-0.016 0.016-0.032 0.016l-2.816 0.608c-0.144 0.016-0.272-0.080-0.304-0.224-0.016-0.080 0.016-0.16 0.064-0.208l1.632-1.632c0.032-0.032 0.080-0.048 0.096-0.016z"></path>
            <path fill="#ff6c37" style="fill: var(--color8, #ff6c37)" d="M11.617 17.408c-0.24 0-0.416-0.192-0.416-0.432 0-0.112 0.048-0.224 0.128-0.304l1.632-1.632c0.096-0.080 0.224-0.080 0.32 0l1.36 1.36c0.096 0.080 0.096 0.224 0 0.32-0.032 0.032-0.064 0.048-0.112 0.064l-2.816 0.608c-0.032 0-0.064 0.016-0.096 0.016zM13.105 15.344l-1.568 1.568c-0.032 0.032-0.048 0.080-0.016 0.128 0.016 0.048 0.064 0.064 0.112 0.048l2.64-0.576-1.168-1.168z"></path>
            <path fill="#fff" style="fill: var(--color2, #fff)" d="M25.342 6.53c-1.024-0.992-2.672-0.96-3.663 0.080s-0.96 2.672 0.080 3.663c0.848 0.816 2.128 0.96 3.135 0.352l-1.824-1.824 2.272-2.272z"></path>
            <path fill="#ff6c37" style="fill: var(--color8, #ff6c37)" d="M23.551 11.153c-1.52 0-2.752-1.232-2.752-2.751s1.232-2.752 2.752-2.752c0.704 0 1.392 0.272 1.904 0.768 0.032 0.032 0.048 0.064 0.048 0.112s-0.016 0.080-0.048 0.112l-2.16 2.16 1.696 1.696c0.064 0.064 0.064 0.16 0 0.224-0.016 0.016-0.016 0.016-0.032 0.032-0.416 0.256-0.912 0.4-1.408 0.4zM23.551 5.986c-1.344 0-2.432 1.088-2.416 2.432 0 1.344 1.088 2.432 2.432 2.416 0.368 0 0.736-0.080 1.072-0.256l-1.68-1.664c-0.032-0.032-0.048-0.064-0.048-0.112s0.016-0.080 0.048-0.112l2.144-2.144c-0.432-0.368-0.976-0.56-1.552-0.56z"></path>
            <path fill="#fff" style="fill: var(--color2, #fff)" d="M25.39 6.578l-0.032-0.032-2.288 2.256 1.808 1.808c0.176-0.112 0.352-0.24 0.496-0.384 1.024-1.008 1.024-2.64 0.016-3.647z"></path>
            <path fill="#ff6c37" style="fill: var(--color8, #ff6c37)" d="M24.894 10.785c-0.048 0-0.080-0.016-0.112-0.048l-1.824-1.824c-0.032-0.032-0.048-0.064-0.048-0.112s0.016-0.080 0.048-0.112l2.272-2.272c0.064-0.064 0.16-0.064 0.224 0l0.048 0.032c1.072 1.072 1.072 2.8 0.016 3.887-0.16 0.16-0.336 0.304-0.528 0.416-0.048 0.016-0.080 0.032-0.096 0.032zM23.295 8.801l1.616 1.616c0.128-0.080 0.256-0.192 0.352-0.288 0.912-0.912 0.96-2.4 0.080-3.359l-2.048 2.032z"></path>
            <path fill="#fff" style="fill: var(--color2, #fff)" d="M22.047 10.561c-0.384-0.384-1.008-0.384-1.392 0l-6.031 6.031 1.008 1.008 6.383-5.599c0.416-0.352 0.448-0.976 0.096-1.392-0.032-0.016-0.048-0.032-0.064-0.048z"></path>
            <path fill="#ff6c37" style="fill: var(--color8, #ff6c37)" d="M15.616 17.76c-0.048 0-0.080-0.016-0.112-0.048l-1.008-1.008c-0.064-0.064-0.064-0.16 0-0.224l6.031-6.031c0.448-0.448 1.168-0.448 1.616 0s0.448 1.168 0 1.616c-0.016 0.016-0.032 0.032-0.048 0.048l-6.383 5.599c-0.016 0.032-0.048 0.048-0.096 0.048zM14.848 16.592l0.784 0.784 6.271-5.503c0.352-0.288 0.384-0.816 0.096-1.168s-0.816-0.384-1.168-0.096c-0.016 0.016-0.032 0.032-0.064 0.048l-5.919 5.935z"></path>
            <path fill="#fff" style="fill: var(--color2, #fff)" d="M10.001 23.455c-0.064 0.032-0.096 0.096-0.080 0.16l0.272 1.152c0.064 0.16-0.032 0.352-0.208 0.4-0.128 0.048-0.272 0-0.352-0.096l-1.76-1.744 5.743-5.743 1.984 0.032 1.344 1.344c-0.32 0.272-2.256 2.144-6.943 4.495z"></path>
            <path fill="#ff6c37" style="fill: var(--color8, #ff6c37)" d="M9.873 25.326c-0.128 0-0.256-0.048-0.336-0.144l-1.744-1.744c-0.032-0.032-0.048-0.064-0.048-0.112s0.016-0.080 0.048-0.112l5.743-5.743c0.032-0.032 0.080-0.048 0.112-0.048l1.984 0.032c0.048 0 0.080 0.016 0.112 0.048l1.344 1.344c0.032 0.032 0.048 0.080 0.048 0.128s-0.016 0.080-0.064 0.112l-0.112 0.096c-1.696 1.488-3.999 2.975-6.863 4.399l0.272 1.136c0.048 0.208-0.048 0.432-0.24 0.544-0.096 0.048-0.176 0.064-0.256 0.064zM8.113 23.327l1.648 1.632c0.048 0.080 0.144 0.112 0.224 0.064s0.112-0.144 0.064-0.224l-0.272-1.152c-0.032-0.144 0.032-0.272 0.16-0.336 2.831-1.424 5.119-2.896 6.799-4.351l-1.184-1.184-1.84-0.032-5.599 5.583z"></path>
            <path fill="#fff" style="fill: var(--color2, #fff)" d="M6.514 24.702l1.376-1.376 2.048 2.048-3.263-0.224c-0.144-0.016-0.24-0.144-0.224-0.288 0-0.064 0.016-0.128 0.064-0.16z"></path>
            <path fill="#ff6c37" style="fill: var(--color8, #ff6c37)" d="M9.937 25.518l-3.279-0.224c-0.24-0.016-0.4-0.224-0.384-0.464 0.016-0.096 0.048-0.192 0.128-0.256l1.376-1.376c0.064-0.064 0.16-0.064 0.224 0l2.048 2.048c0.048 0.048 0.064 0.112 0.032 0.176s-0.080 0.096-0.144 0.096zM7.889 23.551l-1.264 1.264c-0.048 0.032-0.048 0.112 0 0.144 0.016 0.016 0.032 0.032 0.064 0.032l2.831 0.192-1.632-1.632z"></path>
            <path fill="#ff6c37" style="fill: var(--color8, #ff6c37)" d="M13.057 18.32c-0.096 0-0.16-0.080-0.16-0.16 0-0.048 0.016-0.080 0.048-0.112l1.552-1.552c0.064-0.064 0.16-0.064 0.224 0l1.008 1.008c0.048 0.048 0.064 0.096 0.048 0.16-0.016 0.048-0.064 0.096-0.128 0.112l-2.56 0.544c-0.016 0-0.032 0-0.032 0zM14.608 16.832l-1.056 1.056 1.728-0.368-0.672-0.688z"></path>
            <path fill="#fff" style="fill: var(--color2, #fff)" d="M15.6 17.616l-1.76 0.384c-0.128 0.032-0.256-0.048-0.288-0.176-0.016-0.080 0-0.16 0.064-0.224l0.976-0.976 1.008 0.992z"></path>
            <path fill="#ff6c37" style="fill: var(--color8, #ff6c37)" d="M13.808 18.16c-0.224 0-0.4-0.176-0.4-0.4 0-0.112 0.048-0.208 0.112-0.288l0.976-0.976c0.064-0.064 0.16-0.064 0.224 0l1.008 1.008c0.048 0.048 0.064 0.096 0.048 0.16-0.016 0.048-0.064 0.096-0.128 0.112l-1.76 0.384c-0.032 0-0.064 0-0.080 0zM14.608 16.832l-0.864 0.864c-0.032 0.032-0.032 0.064-0.016 0.096s0.048 0.048 0.096 0.048l1.472-0.32-0.688-0.688z"></path>
            <path fill="#ff6c37" style="fill: var(--color8, #ff6c37)" d="M25.406 8.113c-0.032-0.096-0.144-0.144-0.24-0.112s-0.144 0.144-0.112 0.24c0 0.016 0.016 0.032 0.016 0.048 0.096 0.192 0.064 0.432-0.064 0.608-0.064 0.080-0.048 0.192 0.016 0.256 0.080 0.064 0.192 0.048 0.256-0.032 0.24-0.304 0.288-0.688 0.128-1.008z"></path>
        </symbol>
        <symbol id="icon-gh" viewBox="0 0 32 32">
            <path fill="#fff" style="fill: var(--color2, #fff)" d="M16 0.75c-8.628 0-15.625 6.995-15.625 15.625 0 6.904 4.477 12.761 10.685 14.827 0.781 0.145 1.068-0.339 1.068-0.752 0-0.373-0.014-1.603-0.021-2.909-4.347 0.945-5.264-1.844-5.264-1.844-0.711-1.806-1.735-2.286-1.735-2.286-1.418-0.97 0.107-0.95 0.107-0.95 1.569 0.11 2.395 1.61 2.395 1.61 1.394 2.389 3.655 1.698 4.547 1.299 0.14-1.010 0.545-1.699 0.992-2.089-3.471-0.395-7.119-1.735-7.119-7.722 0-1.706 0.61-3.1 1.61-4.194-0.162-0.394-0.697-1.983 0.151-4.135 0 0 1.312-0.42 4.298 1.602 1.246-0.346 2.583-0.52 3.911-0.526 1.328 0.006 2.666 0.18 3.914 0.526 2.982-2.022 4.293-1.602 4.293-1.602 0.85 2.152 0.315 3.741 0.153 4.135 1.002 1.094 1.608 2.488 1.608 4.194 0 6.001-3.655 7.323-7.135 7.71 0.56 0.485 1.060 1.436 1.060 2.894 0 2.091-0.018 3.773-0.018 4.288 0 0.416 0.281 0.903 1.073 0.75 6.205-2.068 10.676-7.923 10.676-14.825 0-8.63-6.996-15.625-15.625-15.625zM6.227 23.008c-0.034 0.078-0.157 0.101-0.268 0.048-0.113-0.051-0.177-0.157-0.14-0.235 0.034-0.080 0.156-0.102 0.269-0.049 0.114 0.051 0.178 0.158 0.139 0.236zM6.996 23.694c-0.074 0.069-0.22 0.037-0.319-0.072-0.102-0.109-0.121-0.255-0.046-0.325 0.077-0.069 0.218-0.037 0.321 0.072 0.102 0.11 0.122 0.255 0.044 0.325zM7.523 24.572c-0.096 0.067-0.252 0.004-0.349-0.135-0.096-0.139-0.096-0.306 0.002-0.372s0.251-0.007 0.349 0.131c0.095 0.141 0.095 0.308-0.002 0.376zM8.415 25.588c-0.086 0.094-0.268 0.069-0.402-0.060-0.137-0.126-0.175-0.305-0.089-0.399s0.27-0.068 0.405 0.060c0.136 0.126 0.177 0.306 0.086 0.399zM9.567 25.931c-0.038 0.122-0.213 0.178-0.39 0.126-0.177-0.054-0.292-0.197-0.257-0.321 0.037-0.123 0.213-0.181 0.392-0.125 0.176 0.053 0.292 0.196 0.256 0.32zM10.879 26.076c0.004 0.129-0.146 0.236-0.331 0.238-0.187 0.004-0.338-0.1-0.34-0.227 0-0.13 0.147-0.236 0.334-0.239 0.186-0.004 0.338 0.1 0.338 0.228zM12.167 26.027c0.022 0.126-0.107 0.255-0.291 0.289-0.181 0.033-0.349-0.045-0.372-0.169-0.023-0.129 0.109-0.258 0.29-0.291 0.185-0.032 0.35 0.043 0.374 0.171z"></path>
        </symbol>
        <symbol id="icon-figma" viewBox="0 0 31 32">
            <path fill="#0acf83" style="fill: var(--color3, #0acf83)" d="M10.296 32c2.831 0 5.128-2.389 5.128-5.333v-5.333h-5.128c-2.831 0-5.128 2.389-5.128 5.333s2.297 5.333 5.128 5.333z"></path>
            <path fill="#a259ff" style="fill: var(--color4, #a259ff)" d="M5.168 16c0-2.944 2.297-5.333 5.128-5.333h5.128v10.667h-5.128c-2.831 0-5.128-2.389-5.128-5.333z"></path>
            <path fill="#f24e1e" style="fill: var(--color5, #f24e1e)" d="M5.168 5.333c0-2.944 2.297-5.333 5.128-5.333h5.128v10.667h-5.128c-2.831 0-5.128-2.389-5.128-5.333z"></path>
            <path fill="#ff7262" style="fill: var(--color6, #ff7262)" d="M15.425 0h5.128c2.831 0 5.128 2.389 5.128 5.333s-2.297 5.333-5.128 5.333h-5.128v-10.667z"></path>
            <path fill="#1abcfe" style="fill: var(--color7, #1abcfe)" d="M25.681 16c0 2.944-2.297 5.333-5.128 5.333s-5.128-2.389-5.128-5.333c0-2.944 2.297-5.333 5.128-5.333s5.128 2.389 5.128 5.333z"></path>
        </symbol>
    </defs>
</svg>